<?xml version="1.0" standalone="no"?><svg xmlns="http://www.w3.org/2000/svg" width="500" height="500" ><rect x1="0" y1="0" width="500" height="500" fill="#039" /><path fill="white" d="M269.02771 462.03556C301.49095 458.86693 331.81940 448.53888 355.90324 432.45098C368.00616 424.36627 385.07594 407.62587 392.49694 396.56338C403.34218 380.39638 411.21817 360.97199 415.43165 340C417.06374 331.87653 417.26314 317.60376 417.59707 185L417.96486 38.947368L317.89474 38.947368L317.89474 172.67306C317.89474 260.58200 317.50921 309.85624 316.76948 316.49013C315.44428 328.37460 311.53547 342.57976 307.56662 349.93462C302.58644 359.16362 293.39802 367.94547 283.81131 372.63882C257.43623 385.55122 218.84256 380.90205 200.54920 362.60869C191.23263 353.29213 184.83222 338.29015 182.14617 319.47368C181.48964 314.87452 181.08649 260.77515 181.07348 175.52632L181.05263 38.947368L82.105263 38.947368L82.105263 177.25689C82.105263 316.01926 82.371267 327.73304 85.920452 345.26316C94.686023 388.55802 121.69624 423.01667 163.04724 443.65869C193.35569 458.78839 232.59204 465.59192 269.02771 462.03556Z" /></svg>
