<?xml version="1.0" standalone="yes"?><svg xmlns="http://www.w3.org/2000/svg" width="1100" height="500" style="zoom: 1;">
<g transform="" id="u">
<rect x1="0" y1="0" width="500" height="500" fill="#039">
</rect>
<path fill="white" d="M269.02771,462.03556 C301.49095,458.86693 331.81940,448.53888 355.90324,432.45098 C368.00616,424.36627 385.07594,407.62587 392.49694,396.56338 C403.34218,380.39638 411.21817,360.97199 415.43165,340 C417.06374,331.87653 417.26314,317.60376 417.59707,185 L417.96486,38.947368 L317.89474,38.947368 L317.89474,172.67306 C317.89474,260.58200 317.50921,309.85624 316.76948,316.49013 C315.44428,328.37460 311.53547,342.57976 307.56662,349.93462 C302.58644,359.16362 293.39802,367.94547 283.81131,372.63882 C257.43623,385.55122 218.84256,380.90205 200.54920,362.60869 C191.23263,353.29213 184.83222,338.29015 182.14617,319.47368 C181.48964,314.87452 181.08649,260.77515 181.07348,175.52632 L181.05263,38.947368 L82.105263,38.947368 L82.105263,177.25689 C82.105263,316.01926 82.371267,327.73304 85.920452,345.26316 C94.686023,388.55802 121.69624,423.01667 163.04724,443.65869 C193.35569,458.78839 232.59204,465.59192 269.02771,462.03556  Z ">
</path>
</g>
<g id="s" transform="translate(500 -10) scale(1.47,1.47)">
<path fill="#006F35" d="M175.4,341.586 c-91.5,0 -165.899,-74.399 -165.899,-165.9 c0,-91.5 74.399,-165.9 165.899,-165.9 c91.501,0 165.901,74.4 165.901,165.9 C341.303,267.187 266.901,341.586 175.4,341.586  z ">
</path>
<path fill="#FFFFFF" d="M133.4,102.186 c0,-14.4 13.2,-26.7 36.301,-26.7 c40.8,0 75.6,21.9 98.7,46.8 v-43.5 c-26.7,-20.7 -60.301,-33 -97.801,-33 c-45,0 -95.1,27.601 -95.1,78.9 c0,97.801 148.5,62.701 148.5,119.4 c0,15 -19.799,29.101 -44.399,29.101 c-40.2,0 -80.1,-24.3 -102,-55.8 v52.199 c23.1,20.7 65.4,37.2 102,37.2 c65.7,0 104.701,-46.801 104.701,-87.001 C284.303,120.186 133.4,162.784 133.4,102.186  z ">
</path>
</g>
</svg>
